# xmcd
#
# Track frame offsets:
#	150
#	20150
#	32812
#	57175
#	79487
#	91962
#	108375
#	125525
#	137812
#	152325
#	164475
#	182350
#	198725
#	217620
#	238300
#	253835
#	267210
#
# Disc length: 3969 seconds
#
# Revision: 3
# Processed by: cddbd v1.5.2PL0 Copyright (c) Steve Scherf et al.
# Submitted via: audiograbber 1.83.01
#
DISCID=ef0f7f11,f60f7f11
DTITLE=Acoustic - The Best Of Unplugged Music
DYEAR=1993
DGENRE=Unplugged
TTITLE0=Levellers - Hard Fight
TTITLE1=Joe Cocker - Guilty
TTITLE2=Lenny Kravitz - Rosemary
TTITLE3=John Parr - St. Elmo's Fire
TTITLE4=Jay Robbins - Move It On Up
TTITLE5=Johnny Winter - When You Got A Good Friend
TTITLE6=Joe Ely - Me And Billy The Kid
TTITLE7=John Lee Hooker - Crawlin' King Snake
TTITLE8=The Mamas and The Papas - Dream A Little Dream Of Me
TTITLE9=Generations Of Love - Restless Heart
TTITLE10=Plainsong - If I Needed Rain
TTITLE11=Green On Red - Little Things In Life
TTITLE12=Violent Femmes - It's Gonna Rain
TTITLE13=Iain Matthews - Back On The Bus
TTITLE14=Mitch Raider - The Jon
TTITLE15=Love Pirates - Summer Of Love
TTITLE16=Rob Wassermann and Jennifer Warnes - Ballad Of The Runaway Horse
EXTD=
EXTT0=
EXTT1=
EXTT2=
EXTT3=
EXTT4=
EXTT5=
EXTT6=
EXTT7=
EXTT8=
EXTT9=
EXTT10=
EXTT11=
EXTT12=
EXTT13=
EXTT14=
EXTT15=
EXTT16=
PLAYORDER=
